<mxfile host="app.diagrams.net" agent="Mozilla/5.0 (Windows NT 10.0; Win64; x64) AppleWebKit/537.36 (KHTML, like Gecko) Chrome/130.0.0.0 Safari/537.36" version="24.8.4">
  <diagram id="C5RBs43oDa-KdzZeNtuy" name="Page-1">
    <mxGraphModel dx="1434" dy="746" grid="1" gridSize="10" guides="1" tooltips="1" connect="1" arrows="1" fold="1" page="1" pageScale="1" pageWidth="827" pageHeight="1169" math="0" shadow="0">
      <root>
        <mxCell id="WIyWlLk6GJQsqaUBKTNV-0" />
        <mxCell id="WIyWlLk6GJQsqaUBKTNV-1" parent="WIyWlLk6GJQsqaUBKTNV-0" />
        <mxCell id="WIyWlLk6GJQsqaUBKTNV-2" value="" style="rounded=0;html=1;jettySize=auto;orthogonalLoop=1;fontSize=11;endArrow=block;endFill=0;endSize=8;strokeWidth=1;shadow=0;labelBackgroundColor=none;edgeStyle=orthogonalEdgeStyle;" parent="WIyWlLk6GJQsqaUBKTNV-1" source="WIyWlLk6GJQsqaUBKTNV-3" target="WIyWlLk6GJQsqaUBKTNV-6" edge="1">
          <mxGeometry relative="1" as="geometry" />
        </mxCell>
        <mxCell id="iomXLrxSrQIqFRzStOGy-3" style="edgeStyle=orthogonalEdgeStyle;rounded=0;orthogonalLoop=1;jettySize=auto;html=1;entryX=0.5;entryY=0;entryDx=0;entryDy=0;" edge="1" parent="WIyWlLk6GJQsqaUBKTNV-1" source="WIyWlLk6GJQsqaUBKTNV-3" target="iomXLrxSrQIqFRzStOGy-0">
          <mxGeometry relative="1" as="geometry" />
        </mxCell>
        <mxCell id="WIyWlLk6GJQsqaUBKTNV-3" value="User enters&amp;nbsp;" style="rounded=1;whiteSpace=wrap;html=1;fontSize=12;glass=0;strokeWidth=1;shadow=0;" parent="WIyWlLk6GJQsqaUBKTNV-1" vertex="1">
          <mxGeometry x="160" y="20" width="120" height="40" as="geometry" />
        </mxCell>
        <mxCell id="WIyWlLk6GJQsqaUBKTNV-4" value="Yes" style="rounded=0;html=1;jettySize=auto;orthogonalLoop=1;fontSize=11;endArrow=block;endFill=0;endSize=8;strokeWidth=1;shadow=0;labelBackgroundColor=none;edgeStyle=orthogonalEdgeStyle;" parent="WIyWlLk6GJQsqaUBKTNV-1" source="WIyWlLk6GJQsqaUBKTNV-6" target="WIyWlLk6GJQsqaUBKTNV-10" edge="1">
          <mxGeometry y="20" relative="1" as="geometry">
            <mxPoint as="offset" />
          </mxGeometry>
        </mxCell>
        <mxCell id="WIyWlLk6GJQsqaUBKTNV-5" value="No" style="edgeStyle=orthogonalEdgeStyle;rounded=0;html=1;jettySize=auto;orthogonalLoop=1;fontSize=11;endArrow=block;endFill=0;endSize=8;strokeWidth=1;shadow=0;labelBackgroundColor=none;" parent="WIyWlLk6GJQsqaUBKTNV-1" source="WIyWlLk6GJQsqaUBKTNV-6" target="WIyWlLk6GJQsqaUBKTNV-7" edge="1">
          <mxGeometry y="10" relative="1" as="geometry">
            <mxPoint as="offset" />
          </mxGeometry>
        </mxCell>
        <mxCell id="WIyWlLk6GJQsqaUBKTNV-6" value="Have Account ?" style="rhombus;whiteSpace=wrap;html=1;shadow=0;fontFamily=Helvetica;fontSize=12;align=center;strokeWidth=1;spacing=6;spacingTop=-4;" parent="WIyWlLk6GJQsqaUBKTNV-1" vertex="1">
          <mxGeometry x="160" y="260" width="120" height="90" as="geometry" />
        </mxCell>
        <mxCell id="iomXLrxSrQIqFRzStOGy-5" style="edgeStyle=orthogonalEdgeStyle;rounded=0;orthogonalLoop=1;jettySize=auto;html=1;" edge="1" parent="WIyWlLk6GJQsqaUBKTNV-1" source="WIyWlLk6GJQsqaUBKTNV-7" target="iomXLrxSrQIqFRzStOGy-6">
          <mxGeometry relative="1" as="geometry">
            <mxPoint x="679.9999999999998" y="305" as="targetPoint" />
          </mxGeometry>
        </mxCell>
        <mxCell id="WIyWlLk6GJQsqaUBKTNV-7" value="Takes to Subscription page" style="rounded=1;whiteSpace=wrap;html=1;fontSize=12;glass=0;strokeWidth=1;shadow=0;" parent="WIyWlLk6GJQsqaUBKTNV-1" vertex="1">
          <mxGeometry x="510" y="285" width="120" height="40" as="geometry" />
        </mxCell>
        <mxCell id="WIyWlLk6GJQsqaUBKTNV-8" value="No" style="rounded=0;html=1;jettySize=auto;orthogonalLoop=1;fontSize=11;endArrow=block;endFill=0;endSize=8;strokeWidth=1;shadow=0;labelBackgroundColor=none;edgeStyle=orthogonalEdgeStyle;" parent="WIyWlLk6GJQsqaUBKTNV-1" source="WIyWlLk6GJQsqaUBKTNV-10" target="WIyWlLk6GJQsqaUBKTNV-11" edge="1">
          <mxGeometry x="0.3333" y="20" relative="1" as="geometry">
            <mxPoint as="offset" />
          </mxGeometry>
        </mxCell>
        <mxCell id="WIyWlLk6GJQsqaUBKTNV-9" value="Yes" style="edgeStyle=orthogonalEdgeStyle;rounded=0;html=1;jettySize=auto;orthogonalLoop=1;fontSize=11;endArrow=block;endFill=0;endSize=8;strokeWidth=1;shadow=0;labelBackgroundColor=none;" parent="WIyWlLk6GJQsqaUBKTNV-1" source="WIyWlLk6GJQsqaUBKTNV-10" edge="1">
          <mxGeometry x="-0.3341" y="10" relative="1" as="geometry">
            <mxPoint as="offset" />
            <mxPoint x="570" y="330" as="targetPoint" />
          </mxGeometry>
        </mxCell>
        <mxCell id="WIyWlLk6GJQsqaUBKTNV-10" value="is free Account ?" style="rhombus;whiteSpace=wrap;html=1;shadow=0;fontFamily=Helvetica;fontSize=12;align=center;strokeWidth=1;spacing=6;spacingTop=-4;" parent="WIyWlLk6GJQsqaUBKTNV-1" vertex="1">
          <mxGeometry x="160" y="445" width="120" height="90" as="geometry" />
        </mxCell>
        <mxCell id="iomXLrxSrQIqFRzStOGy-10" style="edgeStyle=orthogonalEdgeStyle;rounded=0;orthogonalLoop=1;jettySize=auto;html=1;" edge="1" parent="WIyWlLk6GJQsqaUBKTNV-1" source="WIyWlLk6GJQsqaUBKTNV-11" target="iomXLrxSrQIqFRzStOGy-11">
          <mxGeometry relative="1" as="geometry">
            <mxPoint x="220" y="720" as="targetPoint" />
          </mxGeometry>
        </mxCell>
        <mxCell id="iomXLrxSrQIqFRzStOGy-14" style="edgeStyle=orthogonalEdgeStyle;rounded=0;orthogonalLoop=1;jettySize=auto;html=1;" edge="1" parent="WIyWlLk6GJQsqaUBKTNV-1" source="WIyWlLk6GJQsqaUBKTNV-11" target="iomXLrxSrQIqFRzStOGy-15">
          <mxGeometry relative="1" as="geometry">
            <mxPoint x="80" y="810" as="targetPoint" />
          </mxGeometry>
        </mxCell>
        <mxCell id="WIyWlLk6GJQsqaUBKTNV-11" value="Subscribed User" style="rounded=1;whiteSpace=wrap;html=1;fontSize=12;glass=0;strokeWidth=1;shadow=0;" parent="WIyWlLk6GJQsqaUBKTNV-1" vertex="1">
          <mxGeometry x="160" y="590" width="120" height="40" as="geometry" />
        </mxCell>
        <mxCell id="iomXLrxSrQIqFRzStOGy-4" style="edgeStyle=orthogonalEdgeStyle;rounded=0;orthogonalLoop=1;jettySize=auto;html=1;" edge="1" parent="WIyWlLk6GJQsqaUBKTNV-1" source="iomXLrxSrQIqFRzStOGy-0">
          <mxGeometry relative="1" as="geometry">
            <mxPoint x="220" y="170" as="targetPoint" />
          </mxGeometry>
        </mxCell>
        <mxCell id="iomXLrxSrQIqFRzStOGy-0" value="Explores the website" style="rounded=1;whiteSpace=wrap;html=1;fontSize=12;glass=0;strokeWidth=1;shadow=0;" vertex="1" parent="WIyWlLk6GJQsqaUBKTNV-1">
          <mxGeometry x="160" y="90" width="120" height="40" as="geometry" />
        </mxCell>
        <mxCell id="iomXLrxSrQIqFRzStOGy-1" value="Explore Tools/ Market place" style="rounded=1;whiteSpace=wrap;html=1;fontSize=12;glass=0;strokeWidth=1;shadow=0;" vertex="1" parent="WIyWlLk6GJQsqaUBKTNV-1">
          <mxGeometry x="160" y="170" width="120" height="40" as="geometry" />
        </mxCell>
        <mxCell id="iomXLrxSrQIqFRzStOGy-7" style="edgeStyle=orthogonalEdgeStyle;rounded=0;orthogonalLoop=1;jettySize=auto;html=1;" edge="1" parent="WIyWlLk6GJQsqaUBKTNV-1" source="iomXLrxSrQIqFRzStOGy-6" target="iomXLrxSrQIqFRzStOGy-8">
          <mxGeometry relative="1" as="geometry">
            <mxPoint x="739.9999999999998" y="380" as="targetPoint" />
          </mxGeometry>
        </mxCell>
        <mxCell id="iomXLrxSrQIqFRzStOGy-6" value="Selects plan&amp;nbsp;" style="rounded=1;whiteSpace=wrap;html=1;" vertex="1" parent="WIyWlLk6GJQsqaUBKTNV-1">
          <mxGeometry x="679.9999999999998" y="275" width="120" height="60" as="geometry" />
        </mxCell>
        <mxCell id="iomXLrxSrQIqFRzStOGy-13" style="edgeStyle=orthogonalEdgeStyle;rounded=0;orthogonalLoop=1;jettySize=auto;html=1;entryX=1;entryY=0.5;entryDx=0;entryDy=0;" edge="1" parent="WIyWlLk6GJQsqaUBKTNV-1" source="iomXLrxSrQIqFRzStOGy-8" target="iomXLrxSrQIqFRzStOGy-11">
          <mxGeometry relative="1" as="geometry">
            <mxPoint x="739.9999999999998" y="720" as="targetPoint" />
            <Array as="points">
              <mxPoint x="740" y="720" />
            </Array>
          </mxGeometry>
        </mxCell>
        <mxCell id="iomXLrxSrQIqFRzStOGy-8" value="Takes to Login page or Home Page" style="rounded=1;whiteSpace=wrap;html=1;" vertex="1" parent="WIyWlLk6GJQsqaUBKTNV-1">
          <mxGeometry x="690" y="420" width="100" height="60" as="geometry" />
        </mxCell>
        <mxCell id="iomXLrxSrQIqFRzStOGy-9" value="Success" style="text;html=1;align=center;verticalAlign=middle;whiteSpace=wrap;rounded=0;" vertex="1" parent="WIyWlLk6GJQsqaUBKTNV-1">
          <mxGeometry x="750" y="360" width="40" height="20" as="geometry" />
        </mxCell>
        <mxCell id="iomXLrxSrQIqFRzStOGy-11" value="Can use tools" style="rounded=1;whiteSpace=wrap;html=1;" vertex="1" parent="WIyWlLk6GJQsqaUBKTNV-1">
          <mxGeometry x="160" y="690" width="120" height="60" as="geometry" />
        </mxCell>
        <mxCell id="iomXLrxSrQIqFRzStOGy-15" value="Explores MarketPlace" style="rounded=1;whiteSpace=wrap;html=1;" vertex="1" parent="WIyWlLk6GJQsqaUBKTNV-1">
          <mxGeometry x="20" y="780" width="120" height="60" as="geometry" />
        </mxCell>
        <mxCell id="iomXLrxSrQIqFRzStOGy-18" style="edgeStyle=orthogonalEdgeStyle;rounded=0;orthogonalLoop=1;jettySize=auto;html=1;exitX=0.5;exitY=1;exitDx=0;exitDy=0;" edge="1" parent="WIyWlLk6GJQsqaUBKTNV-1" source="iomXLrxSrQIqFRzStOGy-16" target="iomXLrxSrQIqFRzStOGy-20">
          <mxGeometry relative="1" as="geometry">
            <mxPoint x="250.31034482758628" y="1096.9999999999998" as="targetPoint" />
          </mxGeometry>
        </mxCell>
        <mxCell id="iomXLrxSrQIqFRzStOGy-21" style="edgeStyle=orthogonalEdgeStyle;rounded=0;orthogonalLoop=1;jettySize=auto;html=1;" edge="1" parent="WIyWlLk6GJQsqaUBKTNV-1" source="iomXLrxSrQIqFRzStOGy-16">
          <mxGeometry relative="1" as="geometry">
            <mxPoint x="399.9999999999998" y="977" as="targetPoint" />
          </mxGeometry>
        </mxCell>
        <mxCell id="iomXLrxSrQIqFRzStOGy-16" value="is package ?&amp;nbsp;" style="rhombus;whiteSpace=wrap;html=1;rounded=1;" vertex="1" parent="WIyWlLk6GJQsqaUBKTNV-1">
          <mxGeometry x="200" y="937" width="100" height="80" as="geometry" />
        </mxCell>
        <mxCell id="iomXLrxSrQIqFRzStOGy-19" value="No" style="text;html=1;align=center;verticalAlign=middle;resizable=0;points=[];autosize=1;strokeColor=none;fillColor=none;" vertex="1" parent="WIyWlLk6GJQsqaUBKTNV-1">
          <mxGeometry x="250" y="1045" width="40" height="30" as="geometry" />
        </mxCell>
        <mxCell id="iomXLrxSrQIqFRzStOGy-25" style="edgeStyle=orthogonalEdgeStyle;rounded=0;orthogonalLoop=1;jettySize=auto;html=1;entryX=0.5;entryY=1;entryDx=0;entryDy=0;" edge="1" parent="WIyWlLk6GJQsqaUBKTNV-1" source="iomXLrxSrQIqFRzStOGy-20" target="iomXLrxSrQIqFRzStOGy-24">
          <mxGeometry relative="1" as="geometry">
            <mxPoint x="460" y="1016.9999999999998" as="targetPoint" />
          </mxGeometry>
        </mxCell>
        <mxCell id="iomXLrxSrQIqFRzStOGy-20" value="Add to Cart&amp;nbsp;&lt;div&gt;Along with AddOns&lt;/div&gt;" style="rounded=1;whiteSpace=wrap;html=1;" vertex="1" parent="WIyWlLk6GJQsqaUBKTNV-1">
          <mxGeometry x="190.31034482758628" y="1066.9999999999998" width="120" height="60" as="geometry" />
        </mxCell>
        <mxCell id="iomXLrxSrQIqFRzStOGy-22" value="Yes" style="text;html=1;align=center;verticalAlign=middle;resizable=0;points=[];autosize=1;strokeColor=none;fillColor=none;" vertex="1" parent="WIyWlLk6GJQsqaUBKTNV-1">
          <mxGeometry x="320" y="945" width="40" height="30" as="geometry" />
        </mxCell>
        <mxCell id="iomXLrxSrQIqFRzStOGy-23" value="Buy Now" style="text;html=1;align=center;verticalAlign=middle;resizable=0;points=[];autosize=1;strokeColor=none;fillColor=none;" vertex="1" parent="WIyWlLk6GJQsqaUBKTNV-1">
          <mxGeometry x="305" y="977" width="70" height="30" as="geometry" />
        </mxCell>
        <mxCell id="iomXLrxSrQIqFRzStOGy-26" style="edgeStyle=orthogonalEdgeStyle;rounded=0;orthogonalLoop=1;jettySize=auto;html=1;" edge="1" parent="WIyWlLk6GJQsqaUBKTNV-1" source="iomXLrxSrQIqFRzStOGy-24" target="iomXLrxSrQIqFRzStOGy-27">
          <mxGeometry relative="1" as="geometry">
            <mxPoint x="620" y="977" as="targetPoint" />
          </mxGeometry>
        </mxCell>
        <mxCell id="iomXLrxSrQIqFRzStOGy-24" value="CheckOut Page" style="rounded=1;whiteSpace=wrap;html=1;" vertex="1" parent="WIyWlLk6GJQsqaUBKTNV-1">
          <mxGeometry x="400" y="947" width="120" height="60" as="geometry" />
        </mxCell>
        <mxCell id="iomXLrxSrQIqFRzStOGy-27" value="Order Confirmation / Payment" style="rounded=1;whiteSpace=wrap;html=1;" vertex="1" parent="WIyWlLk6GJQsqaUBKTNV-1">
          <mxGeometry x="660" y="948.5" width="120" height="57" as="geometry" />
        </mxCell>
        <mxCell id="iomXLrxSrQIqFRzStOGy-31" value="" style="edgeStyle=orthogonalEdgeStyle;rounded=0;orthogonalLoop=1;jettySize=auto;html=1;" edge="1" parent="WIyWlLk6GJQsqaUBKTNV-1" source="iomXLrxSrQIqFRzStOGy-15" target="iomXLrxSrQIqFRzStOGy-30">
          <mxGeometry relative="1" as="geometry">
            <mxPoint x="140" y="810" as="sourcePoint" />
            <mxPoint x="242" y="901" as="targetPoint" />
          </mxGeometry>
        </mxCell>
        <mxCell id="iomXLrxSrQIqFRzStOGy-32" style="edgeStyle=orthogonalEdgeStyle;rounded=0;orthogonalLoop=1;jettySize=auto;html=1;entryX=0.5;entryY=0;entryDx=0;entryDy=0;" edge="1" parent="WIyWlLk6GJQsqaUBKTNV-1" source="iomXLrxSrQIqFRzStOGy-30" target="iomXLrxSrQIqFRzStOGy-16">
          <mxGeometry relative="1" as="geometry" />
        </mxCell>
        <mxCell id="iomXLrxSrQIqFRzStOGy-33" style="edgeStyle=orthogonalEdgeStyle;rounded=0;orthogonalLoop=1;jettySize=auto;html=1;exitX=1;exitY=0.5;exitDx=0;exitDy=0;" edge="1" parent="WIyWlLk6GJQsqaUBKTNV-1" source="iomXLrxSrQIqFRzStOGy-30" target="iomXLrxSrQIqFRzStOGy-34">
          <mxGeometry relative="1" as="geometry">
            <mxPoint x="470" y="810" as="targetPoint" />
          </mxGeometry>
        </mxCell>
        <mxCell id="iomXLrxSrQIqFRzStOGy-30" value="Have package / Product" style="rhombus;whiteSpace=wrap;html=1;" vertex="1" parent="WIyWlLk6GJQsqaUBKTNV-1">
          <mxGeometry x="190" y="765" width="120" height="90" as="geometry" />
        </mxCell>
        <mxCell id="iomXLrxSrQIqFRzStOGy-34" value="Can use the marketplace / Product" style="rounded=1;whiteSpace=wrap;html=1;" vertex="1" parent="WIyWlLk6GJQsqaUBKTNV-1">
          <mxGeometry x="410" y="780" width="120" height="60" as="geometry" />
        </mxCell>
        <mxCell id="iomXLrxSrQIqFRzStOGy-37" value="" style="endArrow=none;html=1;rounded=0;" edge="1" parent="WIyWlLk6GJQsqaUBKTNV-1">
          <mxGeometry width="50" height="50" relative="1" as="geometry">
            <mxPoint x="719.5" y="947" as="sourcePoint" />
            <mxPoint x="720" y="810" as="targetPoint" />
          </mxGeometry>
        </mxCell>
        <mxCell id="iomXLrxSrQIqFRzStOGy-38" value="" style="endArrow=classic;html=1;rounded=0;entryX=1;entryY=0.5;entryDx=0;entryDy=0;" edge="1" parent="WIyWlLk6GJQsqaUBKTNV-1" target="iomXLrxSrQIqFRzStOGy-34">
          <mxGeometry width="50" height="50" relative="1" as="geometry">
            <mxPoint x="720" y="810" as="sourcePoint" />
            <mxPoint x="520" y="850" as="targetPoint" />
          </mxGeometry>
        </mxCell>
      </root>
    </mxGraphModel>
  </diagram>
</mxfile>
